<svg width="23" height="25" viewBox="0 0 23 25" fill="none" xmlns="http://www.w3.org/2000/svg">
<path d="M11.4695 6.25C7.36661 6.25 3.72998 8.95833 3.72998 12.0833C3.72998 14.1667 4.7557 15.9375 6.52739 16.9792V17.0833C6.43414 18.4375 5.68817 18.8542 5.68817 18.8542L4.00972 19.7917H5.87466C8.20583 19.7917 9.88428 18.6458 10.6303 17.8125C10.91 17.8125 11.0965 17.8125 11.3762 17.8125C15.3858 17.8125 18.6495 15.2083 18.6495 11.9792C18.6495 8.75 15.4791 6.25 11.4695 6.25ZM11.3762 16.7708C11.0965 16.7708 10.7235 16.7708 10.537 16.7708H10.2573L10.0708 16.9792C9.60454 17.5 8.57882 18.4375 6.99362 18.75C7.27336 18.2292 7.45986 17.6042 7.45986 16.6667V16.3542L7.18012 16.25C5.50167 15.3125 4.66245 13.8542 4.66245 12.0833C4.66245 9.58333 7.92609 7.29167 11.4695 7.29167C14.9196 7.29167 17.717 9.375 17.717 12.0833C17.717 14.5833 14.8264 16.7708 11.3762 16.7708Z" fill="white"/>
</svg>
