<svg width="36" height="37" viewBox="0 0 36 37" fill="none" xmlns="http://www.w3.org/2000/svg">
<path d="M30.0002 23.1502C30.0002 20.9002 27.7502 18.9502 25.2002 18.2002C23.2502 20.4502 19.3502 21.8002 15.6002 21.8002C15.4502 21.8002 15.1502 21.8002 15.0002 21.8002C15.0002 21.8002 15.0002 21.8002 14.8502 21.8002C14.7002 22.2502 14.7002 22.5502 14.7002 23.0002C14.7002 26.0002 18.0002 28.4002 22.2002 28.4002C22.5002 28.4002 22.8002 28.4002 23.1002 28.4002C23.7002 29.1502 25.6502 30.5002 28.2002 30.5002C28.2002 30.5002 27.0002 29.9002 27.0002 27.8002C27.0002 26.9002 30.0002 25.1002 30.0002 23.1502Z" fill="white"/>
<path d="M25.5 13.4C25.5 9.65 21.3 6.5 15.9 6.5C10.5 6.5 6 9.65 6 13.4C6 15.95 9 18.2 10.5 19.4C10.5 22.1 8.4 23 8.4 23C11.85 23 13.8 21.35 14.7 20.3C15 20.3 15.45 20.3 15.9 20.3C21.15 20.45 25.5 17.3 25.5 13.4Z" fill="white"/>
</svg>
