<svg width="20" height="20" viewBox="0 0 20 20" fill="none" xmlns="http://www.w3.org/2000/svg">
    <path d="M7.41675 16.5002C7.41675 16.5002 4.16675 16.1668 4.16675 11.7502C4.16675 8.3335 6.75008 6.3335 6.75008 6.3335C6.75008 6.3335 7.83341 7.50016 8.66675 7.91683C9.50008 8.41683 9.83341 3.3335 9.83341 3.3335C9.83341 3.3335 15.8334 6.5835 15.8334 11.5002C15.8334 16.5835 12.5001 16.4168 12.5001 16.4168C12.5001 16.4168 14.0001 14.4168 14.0001 12.0835C14.0001 9.5835 10.7501 6.50016 10.7501 6.50016C10.7501 6.50016 10.3334 10.1668 9.00008 10.6668C7.66675 9.91683 6.91675 8.75016 6.91675 8.75016C6.91675 8.75016 3.83341 13.5835 7.41675 16.5002V16.5002Z" fill="#9D5AA0"/>
    <path d="M7.41675 16.5002C7.41675 16.5002 4.16675 16.1668 4.16675 11.7502C4.16675 8.3335 6.75008 6.3335 6.75008 6.3335C6.75008 6.3335 7.83341 7.50016 8.66675 7.91683C9.50008 8.41683 9.83341 3.3335 9.83341 3.3335C9.83341 3.3335 15.8334 6.5835 15.8334 11.5002C15.8334 16.5835 12.5001 16.4168 12.5001 16.4168C12.5001 16.4168 14.0001 14.4168 14.0001 12.0835C14.0001 9.5835 10.7501 6.50016 10.7501 6.50016C10.7501 6.50016 10.3334 10.1668 9.00008 10.6668C7.66675 9.91683 6.91675 8.75016 6.91675 8.75016C6.91675 8.75016 3.83341 13.5835 7.41675 16.5002V16.5002Z" fill="#6F06F2"/>
    <path d="M10.1666 16.7502C8.49992 16.6668 7.08325 15.5835 7.08325 14.0835C7.08325 12.5835 7.66659 11.9168 7.66659 11.9168C7.66659 11.9168 8.08325 12.7502 8.58325 13.1668C9.08325 13.5835 10.0833 13.8335 10.5833 13.2502C11.0833 12.7502 11.2499 11.3335 11.2499 11.3335C11.2499 11.3335 12.4166 12.2502 12.2499 13.8335C12.1666 15.5002 11.4999 16.7502 10.1666 16.7502Z" fill="#9D5AA0"/>
    <path d="M10.1666 16.7502C8.49992 16.6668 7.08325 15.5835 7.08325 14.0835C7.08325 12.5835 7.66659 11.9168 7.66659 11.9168C7.66659 11.9168 8.08325 12.7502 8.58325 13.1668C9.08325 13.5835 10.0833 13.8335 10.5833 13.2502C11.0833 12.7502 11.2499 11.3335 11.2499 11.3335C11.2499 11.3335 12.4166 12.2502 12.2499 13.8335C12.1666 15.5002 11.4999 16.7502 10.1666 16.7502Z" fill="#6F06F2"/>
</svg>
