<svg width="36" height="37" viewBox="0 0 36 37" fill="none" xmlns="http://www.w3.org/2000/svg">
<path d="M21.2719 6.77925C21.2719 6.77925 16.9253 7.94393 16.641 12.6788C14.0275 8.72039 9.68081 9.88507 9.68081 9.88507C6.49325 10.7392 4.58407 14.046 5.43817 17.2335C7.02991 23.174 20.5233 27.1677 20.5233 27.1677C20.5233 27.1677 30.1733 16.8174 28.6204 11.0219C27.7663 7.83433 24.4595 5.92514 21.2719 6.77925Z" fill="white"/>
<path d="M24.1982 24.303C23.8345 24.6461 23.8344 24.646 23.8343 24.6459L23.834 24.6456L23.8331 24.6446L23.8298 24.641L23.8176 24.6281L23.7724 24.5792C23.7333 24.5367 23.6765 24.4745 23.605 24.3946C23.462 24.2348 23.2595 24.0038 23.0196 23.7169C22.5405 23.144 21.909 22.344 21.3031 21.4396C20.699 20.5379 20.1101 19.5171 19.7268 18.5036C19.3474 17.5004 19.1446 16.4393 19.3986 15.4913C19.9291 13.5113 21.9718 12.3184 23.9462 12.8474L23.8168 13.3304C23.9462 12.8474 23.9464 12.8475 23.9467 12.8475L23.9473 12.8477L23.9485 12.848L23.9517 12.8489L23.9607 12.8514L23.9883 12.8596C24.0109 12.8665 24.0418 12.8763 24.0799 12.8894C24.1559 12.9156 24.261 12.9552 24.3859 13.0109C24.6347 13.1218 24.9679 13.2995 25.3076 13.5681C25.8039 13.9607 26.3117 14.5475 26.5871 15.3874C27.2455 14.7977 27.9787 14.5435 28.6049 14.4516C29.0334 14.3888 29.4107 14.4015 29.6817 14.4299C29.8177 14.4441 29.9285 14.4624 30.0074 14.4777C30.047 14.4854 30.0786 14.4923 30.1017 14.4977L30.1297 14.5044L30.1387 14.5067L30.1419 14.5075L30.1432 14.5079L30.1437 14.508C30.144 14.5081 30.1442 14.5082 30.0148 14.9911L30.1442 14.5082C32.1186 15.0372 33.2911 17.0917 32.7606 19.0716C32.5112 20.0023 31.8053 20.8104 30.9782 21.484C30.1414 22.1656 29.1212 22.7573 28.1465 23.2408C27.169 23.7257 26.2207 24.1099 25.5181 24.3725C25.1663 24.5041 24.875 24.6056 24.6709 24.6744C24.5688 24.7088 24.4884 24.7351 24.4332 24.7529L24.3695 24.7733L24.3525 24.7786L24.3479 24.78L24.3466 24.7804L24.3462 24.7806C24.346 24.7806 24.3459 24.7807 24.1982 24.303ZM24.1982 24.303L23.8345 24.6461L24.0483 24.8727L24.3459 24.7807L24.1982 24.303Z" fill="white" stroke="#53337B"/>
</svg>
