<svg width="24" height="24" viewBox="0 0 24 24" fill="none" xmlns="http://www.w3.org/2000/svg">
<path d="M9.3 12.7998C8.9 12.7998 8.4 12.5998 8.4 12.1998C8.4 11.7998 8.9 11.8998 9.3 11.1998C9.3 11.1998 11.1 6.2998 7.5 6.2998C3.9 6.2998 5.7 11.1998 5.7 11.1998C6.1 11.8998 6.6 11.7998 6.6 12.1998C6.6 12.5998 6.1 12.7998 5.7 12.7998C5.1 12.8998 4.6 12.7998 4 13.3998V19.0998H9C9.2 17.3998 9.7 13.8998 10.1 12.9998L10.2 12.8998C10 12.7998 9.7 12.7998 9.3 12.7998Z" fill="white"/>
<path d="M20 12.6C19.3 11.8 18.7 11.9 18 11.8C17.5 11.7 16.9 11.6 16.9 11.1C16.9 10.6 17.5 10.8 18 9.9C18 9.9 20.1 4 15.8 4C11.4 4.1 13.5 10 13.5 10C14 10.8 14.6 10.7 14.6 11.1C14.6 11.6 14 11.7 13.5 11.8C12.6 11.9 11.8 11.8 11 13.3C10.6 14.2 10 19.1 10 19.1H20V12.6Z" fill="white"/>
</svg>
